PathFileType	4	(X/Y/Z) abd_0kg_1.trc																										
DataRate	CameraRate	NumFrames	NumMarkers	Units	OrigDataRate	OrigDataStartFrame	OrigNumFrames																					
100	100	54	9	mm	100	410	1091																					
Frame#	Time	gu			centelbow			EpL			centpxt8			centijc7			ij			ts			aa			ai		
		X1	Y1	Z1	X2	Y2	Z2	X3	Y3	Z3	X4	Y4	Z4	X5	Y5	Z5	X6	Y6	Z6	X7	Y7	Z7	X8	Y8	Z8	X9	Y9	Z9  
409	4.09	-85.776	17.178	155.345	-129.173	-108.092	363.692	-137.144	-78.911	374.844	-46.816	-153.158	-8.669	-46.816	31.938	-8.669	0	0	0	-131.193	10.032	36.727	-118.03	46.049	149.662	-148.879	-94.384	77.593
410	4.1	-85.915	17.683	154.92	-129.204	-105.2	364.706	-137.261	-75.909	375.5	-46.816	-153.158	-8.669	-46.816	31.938	-8.669	0	0	0	-131.017	9.726	36.335	-117.978	46.513	149.036	-148.532	-94.45	77.881
411	4.11	-86.017	18.002	154.816	-129.305	-102.517	365.969	-137.45	-73.121	376.408	-46.816	-153.158	-8.669	-46.816	31.938	-8.669	0	0	0	-131.008	9.514	36.113	-118.126	47.066	148.579	-148.317	-94.428	78.329
412	4.12	-85.961	18.501	154.809	-129.213	-99.735	367.256	-137.463	-70.247	377.346	-46.816	-153.158	-8.669	-46.816	31.938	-8.669	0	0	0	-131.057	9.348	36.041	-118.368	47.636	148.281	-148.13	-94.373	78.891
413	4.13	-85.768	19.194	154.762	-128.921	-96.852	368.434	-137.284	-67.283	378.189	-46.816	-153.158	-8.669	-46.816	31.938	-8.669	0	0	0	-130.94	9.197	35.989	-118.445	48.187	148.01	-147.765	-94.313	79.443
414	4.14	-85.687	19.849	154.604	-128.72	-94.036	369.459	-137.183	-64.39	378.889	-46.816	-153.158	-8.669	-46.816	31.938	-8.669	0	0	0	-130.63	9.015	35.945	-118.316	48.689	147.744	-147.231	-94.281	79.991
415	4.15	-85.916	20.446	154.262	-128.81	-91.264	370.283	-137.356	-61.542	379.392	-46.816	-153.158	-8.669	-46.816	31.938	-8.669	0	0	0	-130.364	8.69	35.996	-118.231	49.034	147.576	-146.799	-94.383	80.623
416	4.16	-86.28	21.033	153.834	-129.023	-88.515	370.989	-137.641	-58.718	379.783	-46.816	-153.158	-8.669	-46.816	31.938	-8.669	0	0	0	-130.322	8.201	36.155	-118.38	49.19	147.52	-146.641	-94.646	81.341
417	4.17	-86.394	21.461	153.517	-129.012	-85.965	371.755	-137.696	-56.099	380.242	-46.816	-153.158	-8.669	-46.816	31.938	-8.669	0	0	0	-130.433	7.632	36.357	-118.69	49.252	147.508	-146.644	-94.991	82.089
418	4.18	-86.189	21.672	153.33	-128.703	-83.664	372.604	-137.45	-53.732	380.79	-46.816	-153.158	-8.669	-46.816	31.938	-8.669	0	0	0	-130.555	7.087	36.496	-118.994	49.344	147.426	-146.637	-95.308	82.781
419	4.19	-85.992	21.969	153.134	-128.364	-81.302	373.416	-137.19	-51.313	381.301	-46.816	-153.158	-8.669	-46.816	31.938	-8.669	0	0	0	-130.608	6.753	36.436	-119.187	49.645	147.137	-146.519	-95.415	83.279
420	4.2	-86.072	22.53	152.878	-128.238	-78.685	374.151	-137.163	-48.647	381.734	-46.816	-153.158	-8.669	-46.816	31.938	-8.669	0	0	0	-130.55	6.648	36.212	-119.236	50.157	146.683	-146.255	-95.3	83.599
421	4.21	-86.316	23.076	152.691	-128.283	-76.059	374.942	-137.314	-45.977	382.218	-46.816	-153.158	-8.669	-46.816	31.938	-8.669	0	0	0	-130.39	6.523	36.053	-119.172	50.621	146.3	-145.875	-95.215	83.961
422	4.22	-86.409	23.437	152.656	-128.243	-73.613	375.85	-137.375	-43.489	382.819	-46.816	-153.158	-8.669	-46.816	31.938	-8.669	0	0	0	-130.175	6.304	35.991	-119.055	50.976	146.016	-145.432	-95.228	84.407
423	4.23	-86.212	23.751	152.622	-127.938	-71.267	376.709	-137.17	-41.106	383.378	-46.816	-153.158	-8.669	-46.816	31.938	-8.669	0	0	0	-129.957	6.132	35.905	-118.942	51.383	145.704	-144.986	-95.189	84.831
424	4.24	-85.902	24.102	152.4	-127.495	-68.953	377.334	-136.826	-38.759	383.715	-46.816	-153.158	-8.669	-46.816	31.938	-8.669	0	0	0	-129.809	6.064	35.841	-118.918	51.898	145.41	-144.633	-95.038	85.281
425	4.25	-85.741	24.583	152.037	-127.176	-66.561	377.781	-136.615	-36.343	383.88	-46.816	-153.158	-8.669	-46.816	31.938	-8.669	0	0	0	-129.835	6.097	35.829	-119.087	52.496	145.174	-144.479	-94.788	85.762
426	4.26	-85.779	25.285	151.765	-127.092	-63.986	378.278	-136.654	-33.752	384.096	-46.816	-153.158	-8.669	-46.816	31.938	-8.669	0	0	0	-129.988	6.144	35.776	-119.385	53.067	144.912	-144.464	-94.538	86.167
427	4.27	-85.872	25.986	151.68	-127.164	-61.412	378.926	-136.855	-31.164	384.459	-46.816	-153.158	-8.669	-46.816	31.938	-8.669	0	0	0	-130.01	5.992	35.682	-119.547	53.416	144.614	-144.354	-94.489	86.511
428	4.28	-85.878	26.422	151.637	-127.239	-59.065	379.596	-137.048	-28.804	384.839	-46.816	-153.158	-8.669	-46.816	31.938	-8.669	0	0	0	-129.746	5.613	35.574	-119.426	53.546	144.298	-143.992	-94.655	86.849
429	4.29	-85.81	26.754	151.438	-127.242	-56.759	380.116	-137.154	-26.482	385.065	-46.816	-153.158	-8.669	-46.816	31.938	-8.669	0	0	0	-129.349	5.217	35.44	-119.174	53.663	143.949	-143.486	-94.835	87.164
430	4.3	-85.853	27.305	150.981	-127.281	-54.154	380.399	-137.294	-23.863	385.048	-46.816	-153.158	-8.669	-46.816	31.938	-8.669	0	0	0	-129.071	4.924	35.332	-119.043	53.871	143.63	-143.097	-94.915	87.494
431	4.31	-86.111	28.115	150.329	-127.466	-51.235	380.498	-137.581	-20.932	384.843	-46.816	-153.158	-8.669	-46.816	31.938	-8.669	0	0	0	-128.985	4.728	35.281	-119.101	54.171	143.367	-142.929	-94.894	87.88
432	4.32	-86.418	29.038	149.708	-127.694	-48.218	380.602	-137.913	-17.909	384.645	-46.816	-153.158	-8.669	-46.816	31.938	-8.669	0	0	0	-128.989	4.604	35.214	-119.238	54.556	143.077	-142.872	-94.789	88.261
433	4.33	-86.54	29.89	149.374	-127.806	-45.318	380.945	-138.124	-15.004	384.693	-46.816	-153.158	-8.669	-46.816	31.938	-8.669	0	0	0	-128.976	4.496	35.124	-119.352	54.948	142.766	-142.798	-94.668	88.613
434	4.34	-86.395	30.448	149.408	-127.76	-42.706	381.618	-138.16	-12.385	385.071	-46.816	-153.158	-8.669	-46.816	31.938	-8.669	0	0	0	-128.904	4.282	35.163	-119.423	55.208	142.595	-142.68	-94.663	89.068
435	4.35	-86.067	30.588	149.629	-127.645	-40.478	382.449	-138.096	-10.142	385.607	-46.816	-153.158	-8.669	-46.816	31.938	-8.669	0	0	0	-128.811	3.857	35.439	-119.491	55.252	142.661	-142.574	-94.865	89.754
436	4.36	-85.774	30.526	149.751	-127.618	-38.466	383.146	-138.096	-8.111	386.015	-46.816	-153.158	-8.669	-46.816	31.938	-8.669	0	0	0	-128.752	3.308	35.81	-119.591	55.197	142.807	-142.503	-95.177	90.558
437	4.37	-85.696	30.758	149.554	-127.735	-36.216	383.502	-138.241	-5.846	386.093	-46.816	-153.158	-8.669	-46.816	31.938	-8.669	0	0	0	-128.716	2.971	35.915	-119.674	55.384	142.666	-142.365	-95.268	91.128
438	4.38	-85.791	31.596	149.07	-127.903	-33.397	383.563	-138.451	-3.02	385.883	-46.816	-153.158	-8.669	-46.816	31.938	-8.669	0	0	0	-128.635	3.126	35.558	-119.666	56.076	142.051	-142.058	-94.872	91.252
439	4.39	-85.856	32.778	148.62	-128.02	-30.235	383.643	-138.619	0.144	385.691	-46.816	-153.158	-8.669	-46.816	31.938	-8.669	0	0	0	-128.494	3.53	35.093	-119.591	56.994	141.334	-141.681	-94.236	91.249
440	4.4	-85.833	33.608	148.414	-128.149	-27.387	383.941	-138.782	2.997	385.713	-46.816	-153.158	-8.669	-46.816	31.938	-8.669	0	0	0	-128.377	3.675	34.942	-119.551	57.619	140.947	-141.437	-93.86	91.528
441	4.41	-85.863	33.671	148.339	-128.428	-25.253	384.349	-139.071	5.143	385.839	-46.816	-153.158	-8.669	-46.816	31.938	-8.669	0	0	0	-128.338	3.479	34.985	-119.573	57.886	140.758	-141.358	-93.818	91.988
442	4.42	-85.925	33.333	148.25	-128.73	-23.507	384.727	-139.382	6.899	385.937	-46.816	-153.158	-8.669	-46.816	31.938	-8.669	0	0	0	-128.347	3.138	35.017	-119.622	58.008	140.553	-141.346	-93.914	92.44
443	4.43	-85.826	33.256	148.054	-128.73	-21.546	384.994	-139.417	8.857	385.929	-46.816	-153.158	-8.669	-46.816	31.938	-8.669	0	0	0	-128.399	2.691	35.147	-119.723	58.022	140.447	-141.389	-94.115	92.988
444	4.44	-85.571	33.692	147.674	-128.398	-19.112	385.081	-139.154	11.274	385.746	-46.816	-153.158	-8.669	-46.816	31.938	-8.669	0	0	0	-128.444	2.224	35.367	-119.822	58.01	140.43	-141.408	-94.338	93.62
445	4.45	-85.352	34.472	147.174	-128.038	-16.307	385.047	-138.885	14.052	385.436	-46.816	-153.158	-8.669	-46.816	31.938	-8.669	0	0	0	-128.332	2.026	35.395	-119.738	58.276	140.214	-141.188	-94.294	94.07
446	4.46	-85.247	35.272	146.672	-127.854	-13.393	385.001	-138.794	16.934	385.101	-46.816	-153.158	-8.669	-46.816	31.938	-8.669	0	0	0	-128.156	2.174	35.135	-119.563	58.906	139.693	-140.821	-93.901	94.251
447	4.47	-85.199	35.789	146.247	-127.809	-10.688	385.011	-138.828	19.61	384.812	-46.816	-153.158	-8.669	-46.816	31.938	-8.669	0	0	0	-128.189	2.318	34.89	-119.603	59.548	139.177	-140.675	-93.5	94.461
448	4.48	-85.129	36.014	145.995	-127.783	-8.29	385.164	-138.868	21.98	384.672	-46.816	-153.158	-8.669	-46.816	31.938	-8.669	0	0	0	-128.349	2.185	34.93	-119.8	59.914	138.945	-140.737	-93.362	94.954
449	4.49	-85.003	36.209	145.941	-127.709	-5.983	385.483	-138.859	24.258	384.705	-46.816	-153.158	-8.669	-46.816	31.938	-8.669	0	0	0	-128.378	1.921	35.095	-119.876	60.139	138.841	-140.703	-93.355	95.562
450	4.5	-84.876	36.493	145.947	-127.607	-3.573	385.849	-138.823	26.635	384.785	-46.816	-153.158	-8.669	-46.816	31.938	-8.669	0	0	0	-128.308	1.66	35.206	-119.839	60.36	138.682	-140.546	-93.348	96.112
451	4.51	-84.795	36.924	145.825	-127.475	-0.929	386.095	-138.766	29.238	384.738	-46.816	-153.158	-8.669	-46.816	31.938	-8.669	0	0	0	-128.26	1.266	35.443	-119.815	60.449	138.646	-140.393	-93.472	96.787
452	4.52	-84.762	37.629	145.496	-127.312	2.044	386.136	-138.693	32.163	384.48	-46.816	-153.158	-8.669	-46.816	31.938	-8.669	0	0	0	-128.187	0.752	35.838	-119.778	60.429	138.759	-140.196	-93.71	97.631
453	4.53	-84.785	38.389	145.068	-127.204	5.059	386.054	-138.674	35.126	384.101	-46.816	-153.158	-8.669	-46.816	31.938	-8.669	0	0	0	-128.085	0.382	36.028	-119.711	60.578	138.649	-139.914	-93.793	98.292
454	4.54	-84.785	38.797	144.743	-127.147	7.675	386.034	-138.689	37.695	383.793	-46.816	-153.158	-8.669	-46.816	31.938	-8.669	0	0	0	-128.064	0.251	35.88	-119.704	60.97	138.194	-139.674	-93.634	98.621
455	4.55	-84.643	38.93	144.627	-127.033	9.98	386.183	-138.628	39.957	383.658	-46.816	-153.158	-8.669	-46.816	31.938	-8.669	0	0	0	-128.108	0.242	35.679	-119.754	61.452	137.7	-139.529	-93.365	98.869
456	4.56	-84.455	39.201	144.611	-126.896	12.414	386.408	-138.546	42.345	383.6	-46.816	-153.158	-8.669	-46.816	31.938	-8.669	0	0	0	-128.074	0.285	35.578	-119.73	61.951	137.325	-139.355	-93.057	99.184
457	4.57	-84.406	39.711	144.419	-126.848	15.107	386.447	-138.563	44.984	383.356	-46.816	-153.158	-8.669	-46.816	31.938	-8.669	0	0	0	-127.919	0.269	35.521	-119.574	62.372	137.002	-139.095	-92.811	99.528
458	4.58	-84.464	40.189	143.954	-126.844	17.783	386.206	-138.621	47.605	382.834	-46.816	-153.158	-8.669	-46.816	31.938	-8.669	0	0	0	-127.752	-0.063	35.586	-119.39	62.47	136.801	-138.861	-92.877	99.988
459	4.59	-84.448	40.416	143.494	-126.772	20.174	385.947	-138.602	49.943	382.299	-46.816	-153.158	-8.669	-46.816	31.938	-8.669	0	0	0	-127.708	-0.659	35.809	-119.34	62.307	136.755	-138.74	-93.206	100.608
460	4.6	-84.303	40.472	143.221	-126.61	22.348	385.844	-138.487	52.064	381.928	-46.816	-153.158	-8.669	-46.816	31.938	-8.669	0	0	0	-127.787	-1.037	35.981	-119.455	62.37	136.653	-138.639	-93.324	101.181
461	4.61	-84.128	40.551	142.903	-126.383	24.545	385.685	-138.308	54.205	381.503	-46.816	-153.158	-8.669	-46.816	31.938	-8.669	0	0	0	-127.852	-0.929	35.897	-119.583	62.905	136.304	-138.423	-92.977	101.478
462	4.62	-84.06	40.726	142.376	-126.177	26.856	385.312	-138.157	56.456	380.866	-46.816	-153.158	-8.669	-46.816	31.938	-8.669	0	0	0	-127.829	-0.552	35.567	-119.598	63.659	135.736	-138.129	-92.388	101.488
